<?xml version="1.0" encoding="utf-8"?>
<!-- Generator: Adobe Illustrator 21.0.2, SVG Export Plug-In . SVG Version: 6.00 Build 0)  -->
<svg version="1.1" id="Layer_1" xmlns="http://www.w3.org/2000/svg" xmlns:xlink="http://www.w3.org/1999/xlink" x="0px" y="0px"
	 viewBox="0 0 324 44.4" style="enable-background:new 0 0 324 44.4;" xml:space="preserve">
<style type="text/css">
	.st0{fill:#DA291C;}
	.st1{fill:#9A3324;}
	.st2{fill:#4D4D4F;}
</style>
<g>
	<path class="st0" d="M63.7,27.7c0.6,1.9,2.2,2.8,4.5,2.8c2.2,0,3.8-0.9,3.8-2.7c0-1.3-0.9-1.9-2.7-2.3l-5.4-1.1
		c-4.1-0.9-7.2-3-7.2-7.7c0-5.4,4.6-9,10.8-9c6.9,0,10.7,3.7,11.5,8.5h-7.1c-0.6-1.5-1.9-2.7-4.3-2.7c-2.1,0-3.5,0.9-3.5,2.4
		c0,1.2,0.9,1.9,2.3,2.2l5.5,1.3c4.8,1.1,7.4,3.7,7.4,8c0,5.7-4.8,8.9-11,8.9c-6.7,0-11.3-3.2-12.3-8.7h7.7L63.7,27.7L63.7,27.7z"/>
	<path class="st0" d="M89.7,27.3v8.6h-7.3V8.1h12.3c6.1,0,10.2,3.4,10.2,9.6c0,6.1-4.1,9.5-10.2,9.5L89.7,27.3L89.7,27.3z M94,14.3
		h-4.3v7H94c2.7,0,3.8-1.4,3.8-3.5C97.8,15.7,96.6,14.3,94,14.3z"/>
	<path class="st0" d="M120.7,36.4c-8.1,0-13.7-6.1-13.7-14.3c0-8.3,5.6-14.3,13.7-14.3c8.1,0,13.8,6,13.8,14.3
		C134.4,30.4,128.8,36.4,120.7,36.4z M120.7,14.1c-3.8,0-6.3,3.2-6.3,8s2.5,8,6.3,8s6.4-3.2,6.4-8C127,17.3,124.5,14.1,120.7,14.1z"
		/>
	<path class="st0" d="M144.8,26.8V36h-7.3V8.2h12.6c6,0,10.2,3.4,10.2,9.4c0,4.2-2.1,7.1-5.6,8.4l6.6,9.9h-8.1l-5.9-9.2h-2.5V26.8z
		 M144.8,21h4.6c2.6,0,3.8-1.3,3.8-3.3s-1.2-3.3-3.8-3.3h-4.6V21z"/>
	<path class="st0" d="M162.5,8.2h24.7l-3.8,6.2h-4.9v21.5h-7.4V14.4h-8.6L162.5,8.2L162.5,8.2z"/>
	<path d="M187.2,8.2h21.2v6.2h-8.7v21.5h-7.4V14.4h-8.9L187.2,8.2z"/>
	<path d="M231.5,8.2v6.2h-12.8v4.3h11.7v6.1h-11.7v4.8h12.8v6.3h-20.1V8.1L231.5,8.2L231.5,8.2z"/>
	<path d="M247.5,7.8c7,0,11.1,4.1,12.1,9.8h-7.3c-0.7-2-2.2-3.4-4.8-3.4c-3.9,0-6.1,3.4-6.1,8c0,4.5,2.2,8,6.1,8
		c2.6,0,4.1-1.4,4.8-3.4h7.3c-1,5.7-5.1,9.8-12.1,9.8c-7.9,0-13.5-5.9-13.5-14.3C234.1,13.7,239.7,7.8,247.5,7.8z"/>
	<path d="M288.3,8.2V36h-7.4V25h-10.8v11h-7.4V8.2h7.4v10.5h10.8V8.2H288.3z"/>
	<path d="M299.8,36h-7.4V8.2h7.4V36z"/>
	<path d="M324,8.2v6.2h-12.8v4.3h11.7v6.1h-11.7v4.8H324v6.3h-20.1V8.1L324,8.2L324,8.2z"/>
</g>
<g>
	<polygon class="st0" points="10.4,0.1 17.8,14.9 33.8,14.9 42.9,0 	"/>
	<polygon class="st1" points="10.4,0.1 17.8,14.9 1.5,14.9 	"/>
	<polygon class="st0" points="1.5,14.9 17.8,14.9 9.1,29.4 	"/>
	<polygon class="st2" points="32.5,44.3 25.1,29.4 9.1,29.4 0,44.4 	"/>
	<polygon points="32.5,44.3 25.1,29.4 41.4,29.4 	"/>
	<polygon class="st2" points="41.4,29.4 25.1,29.4 33.8,14.9 	"/>
</g>
</svg>
